<svg id="Capa_1" enable-background="new 0 0 512 512" height="512" viewBox="0 0 512 512" width="512" xmlns="http://www.w3.org/2000/svg"><g><path d="m53.889 292.014c-4.267 0-7.726-3.459-7.726-7.726v-36.657l-41.514-102.008c-1.989-4.882-.83-10.416 2.954-14.097l81.84-78.69c3.076-2.957 7.968-2.861 10.925.214 2.958 3.076 2.862 7.967-.214 10.925l-80.535 77.436 41.045 100.859c.637 1.59.951 3.211.951 4.86v37.158c0 4.267-3.459 7.726-7.726 7.726z" fill="#9ec8fc"/><path d="m79.797 273.988h-51.82c-4.637 0-8.396 3.759-8.396 8.396v25.469l34.306 10 34.306-10v-25.469c.001-4.637-3.759-8.396-8.396-8.396z" fill="#4071f7"/><path d="m49.255 494.079c-4.267 0-7.726-3.459-7.726-7.726v-105.566c0-4.267 3.459-7.726 7.726-7.726s7.726 3.459 7.726 7.726v105.565c0 4.267-3.459 7.727-7.726 7.727z" fill="#407194"/><path d="m462.746 494.079c-4.267 0-7.726-3.459-7.726-7.726v-105.566c0-4.267 3.459-7.726 7.726-7.726s7.726 3.459 7.726 7.726v105.565c0 4.267-3.459 7.727-7.726 7.727z" fill="#407194"/><path d="m62.404 385.938h-26.299c-2.845 0-5.151-2.306-5.151-5.151v-31.45l18.301-10 18.301 10v31.45c-.001 2.844-2.307 5.151-5.152 5.151z" fill="#db387e"/><path d="m475.895 385.938h-26.299c-2.845 0-5.151-2.306-5.151-5.151v-31.45l18.301-10 18.3 10v31.45c0 2.844-2.306 5.151-5.151 5.151z" fill="#db387e"/><g fill="#9ec8fc"><path d="m206.96 321.894c-.88 0-1.775-.151-2.649-.471-4.008-1.463-6.071-5.899-4.608-9.907l20.288-55.572c1.464-4.009 5.9-6.071 9.908-4.608s6.071 5.899 4.608 9.907l-20.288 55.572c-1.145 3.134-4.106 5.079-7.259 5.079z"/><path d="m301.63 321.894c-3.153 0-6.114-1.945-7.259-5.078l-20.288-55.572c-1.464-4.009.6-8.444 4.608-9.907 4.01-1.466 8.444.599 9.908 4.608l20.288 55.572c1.464 4.009-.6 8.444-4.608 9.907-.874.319-1.769.47-2.649.47z"/></g><path d="m389.868 235.866-135.573 10-135.573-10v-166.975c0-3.228 2.617-5.845 5.845-5.845h259.457c3.228 0 5.845 2.617 5.845 5.845v166.975z" fill="#407194"/><path d="m384.024 63.046h-22.445c3.228 0 5.845 2.617 5.845 5.845v171.177h22.445v-171.178c-.001-3.227-2.617-5.844-5.845-5.844z" fill="#365f7e"/><path d="m389.868 235.866h-271.146v23.195c0 3.228 2.617 5.845 5.845 5.845h259.457c3.228 0 5.845-2.617 5.845-5.845v-23.195z" fill="#ddebfd"/><path d="m367.424 235.866v23.195c0 3.228-2.617 5.845-5.845 5.845h22.445c3.228 0 5.845-2.617 5.845-5.845v-23.195z" fill="#bed9fd"/><path d="m159.931 57.772-25.694 14.576-19.282 23.163 11.227 13.379c4.605 5.488 12.787 6.204 18.274 1.599l25.103-21.064c5.488-4.605 6.204-12.787 1.599-18.274z" fill="#eec06b"/><path d="m93.436 24.196c-11.346 9.521-12.826 26.436-3.306 37.782l15.276 18.206 41.088-34.477-15.276-18.206c-9.52-11.345-26.436-12.825-37.782-3.305z" fill="#db387e"/><path d="m169.001 50.161-63.116 52.96c-1.874 1.573-4.668 1.328-6.241-.546l-4.194-4.998c-7.257-8.648-6.129-21.542 2.52-28.799l38.584-32.376c8.648-7.257 21.542-6.129 28.799 2.52l4.194 4.998c1.572 1.875 1.328 4.669-.546 6.241z" fill="#4071f7"/><path d="m492.911 208.642v93.4c0 3.21-2.599 5.81-5.809 5.81l-58.816 10-54.626-10-10-52.508 10-52.507h113.442c3.21.001 5.809 2.605 5.809 5.805z" fill="#ddebfd"/><path d="m487.102 202.838h-21.632c3.208 0 5.808 2.599 5.808 5.806v93.4c0 3.208-2.6 5.808-5.808 5.808h21.632c3.208 0 5.809-2.602 5.809-5.81v-93.4c0-3.207-2.601-5.804-5.809-5.804z" fill="#bed9fd"/><path d="m373.66 202.838h-33.012c-3.208 0-5.808 2.599-5.808 5.807v93.4c0 3.208 2.601 5.808 5.808 5.808l16.327 10 16.685-10z" fill="#4071f7"/><path d="m0 313.004v31.182c0 2.845 2.306 5.151 5.151 5.151h501.698c2.845 0 5.151-2.306 5.151-5.151v-31.182c0-2.845-2.306-5.151-5.151-5.151h-501.698c-2.845 0-5.151 2.306-5.151 5.151z" fill="#eec06b"/><path d="m506.849 307.853h-22.664c2.845 0 5.151 2.306 5.151 5.151v31.182c0 2.845-2.306 5.151-5.151 5.151h22.664c2.845 0 5.151-2.306 5.151-5.151v-31.182c0-2.845-2.306-5.151-5.151-5.151z" fill="#e9a761"/></g></svg>